<?xml version="1.0" encoding="utf-8"?>
<svg id="master-artboard" viewBox="0 0 1400 980" version="1.1" xmlns="http://www.w3.org/2000/svg" x="0px" y="0px"
     style="enable-background:new 0 0 1400 980;" width="1400px" height="980px">
    <rect id="ee-background" x="0" y="0" width="1400" height="980"
          style="fill: white; fill-opacity: 0; pointer-events: none;"/>
    <defs>
        <style id="ee-google-fonts">@import
            url(https://fonts.googleapis.com/css?family=Fjalla+One:400|Roboto:100,100italic,300,300italic,400,400italic,500,500italic,700,700italic,900,900italic);
        </style>
    </defs>


    <path d="M 529.200012 100.900002 L 873.200012 100.900002" class="st4" style="fill: rgb(255, 255, 255);"
          transform="matrix(0.9999999999999999, 0, 0, 0.9999999999999999, 1.8189894035458565e-12, 4.547473508864641e-13)"/>


    <g transform="matrix(0.9999999999999999, 0, 0, 0.9999999999999999, 1.8189894035458565e-12, 4.547473508864641e-13)">
        <path class="st13" d="M448.4,599.9" style="fill: rgb(223, 243, 251);"/>
    </g>


    <g transform="matrix(1.9140625, 0, 0, 1.9140625, 209.99992965625188, 0)">
        <path d="M 32 0 H 480 A 32 32 0 0 1 512 32 V 480 A 32 32 0 0 1 480 512 H 32 A 32 32 0 0 1 0 480 V 32 A 32 32 0 0 1 32 0 Z"
              fill="#ffffff" fill-opacity="0"/>
        <g class="" transform="translate(0,0)" style="">
            <path d="M45.215 19.162v438.443l18.687-27.334V19.163H45.215zm50.21 0v408.082h18.688V19.162H95.426zm54.07 0V294.11h3.21c4.71-5.543 9.902-10.77 15.48-15.684V19.162h-18.69zm50.21 0v236.98c6.047-3.43 12.296-6.582 18.69-9.44V19.16h-18.69zm50.21 0v216.033c6.18-1.787 12.42-3.34 18.69-4.625V19.162h-18.69zm48.923 0v207.262c5.177-.357 10.33-.54 15.432-.512 1.088.006 2.17.03 3.255.055V19.162h-18.687zm54.07 0v211.12c4.172.978 8.25 2.142 12.237 3.46 1.688-2.06 3.45-4.088 5.31-6.07.376-.4.763-.78 1.143-1.174V19.162h-18.69zm50.21 0v184.172c6.14-2.986 12.41-5.27 18.69-6.81V19.16h-18.69zm50.208 0v176.336c6.655 1.35 12.978 3.786 18.69 7.395V19.163h-18.69zM440.61 212.85c-3.508-.006-7.176.35-10.97 1.074-15.174 2.895-31.835 11.907-45.554 26.533-4.884 5.208-9.023 10.747-12.434 16.412-93.246-57.583-331.013 75.585-179.697 189.32H72.64l-26.453 47.744h257.165l-88.48-103.25c24.272-26.71 67.455-43.708 96.997-45.067 13.792 45.098 36.248 113.5 71.734 148.315h60.865c-43.9-47.444-77.84-111.502-82.236-183.94 1.887 5.67 4.938 10.597 9.137 14.55 9.046 8.518 22.192 11.497 37.366 8.603 15.175-2.895 31.838-11.905 45.557-26.532 13.72-14.626 21.666-31.854 23.61-47.22 1.943-15.367-1.85-28.35-10.895-36.868-6.784-6.387-15.875-9.66-26.4-9.675z"
                  fill="#fff" fill-opacity="1"/>
        </g>
    </g>
    <g transform="matrix(0.963245689868927, 0, 0, 0.963245689868927, 264.9042418259753, 21.961719512939453)">
        <path d="M 32 0 H 480 A 32 32 0 0 1 512 32 V 480 A 32 32 0 0 1 480 512 H 32 A 32 32 0 0 1 0 480 V 32 A 32 32 0 0 1 32 0 Z"
              fill="#ffffff" fill-opacity="0"/>
        <g class="" transform="translate(0,0)" style="">
            <path d="M256 23c-3.7 0-7.4.1-11.1.27l.8 17.98c3.4-.16 6.8-.25 10.3-.25 118.8 0 215 96.2 215 215s-96.2 215-215 215c-89.6 0-166.35-54.7-198.65-132.6l27.63-8.3-48.43-34.3-19.05 54.5 22.55-6.7C74.68 428.8 158.4 489 256 489c128.6 0 233-104.4 233-233S384.6 23 256 23zm-30.8 2.04c-13.3 1.75-26.1 4.6-38.6 8.48l5.6 17.09c11.4-3.54 23.3-6.15 35.4-7.75l-2.4-17.82zm-57 15.12c-12.4 5.05-24.2 11.12-35.4 18.12l9.5 15.21c10.3-6.44 21.2-12.03 32.6-16.67l-6.7-16.66zM116.4 69.5a234.139 234.139 0 0 0-29.35 26.12l13.05 12.28c8.3-8.77 17.4-16.81 27-24.06l-4.8-6.57-5.9-7.77zm69.5 8.58l-4.4 17.44 217 55.48 4.4-17.4-217-55.52zM74.07 110.5c-8.19 10.2-15.54 21.2-21.94 32.7l15.65 8.8c5.91-10.7 12.69-20.8 20.26-30.3l-13.97-11.2zm127.63 8.8c-3.9 26 2.8 55.2 14.2 79.2 6.4 13.4 14.2 25.2 21.9 33.8 4.2 4.7 8.4 8.3 12.2 10.9l-5.4 21.2c-4.6.4-10 1.6-16 3.7-10.9 3.8-23.4 10.4-35.4 19.1-21.6 15.6-41.4 37.9-50.4 62.6l167.5 42.9c3.9-26-2.8-55.2-14.2-79.2-6.4-13.4-14.2-25.2-21.9-33.8-4.2-4.7-8.4-8.3-12.2-10.9l5.4-21.2c4.5-.5 10-1.6 16-3.7 10.9-3.8 23.4-10.4 35.4-19.1 21.6-15.6 41.4-37.9 50.4-62.6l-167.5-42.9zM43.24 160.9c-5.33 12-9.7 24.4-13 37.3l17.48 4.2c3.03-11.8 7.04-23.2 11.95-34.2l-16.43-7.3zM26.2 217.5C24.11 230 23 242.9 23 256v.9l18-.2v-.7c0-12.1 1.02-24 2.95-35.6l-17.75-2.9zM113.5 361l-4.4 17.4 217 55.5 4.4-17.4-217-55.5z"
                  fill="#fff" fill-opacity="1" style="fill-opacity: 1; fill: rgb(221, 221, 221);"/>
        </g>
    </g>
</svg>