<?xml version="1.0" encoding="utf-8"?>
<svg id="master-artboard" viewBox="0 0 1400 980" version="1.1" xmlns="http://www.w3.org/2000/svg" x="0px" y="0px"
     style="enable-background:new 0 0 1400 980;" width="1400px" height="980px">
    <rect id="ee-background" x="0" y="0" width="1400" height="980"
          style="fill: white; fill-opacity: 0; pointer-events: none;"/>
    <defs>
        <style id="ee-google-fonts">@import
            url(https://fonts.googleapis.com/css?family=Fjalla+One:400|Roboto:100,100italic,300,300italic,400,400italic,500,500italic,700,700italic,900,900italic);
        </style>
    </defs>


    <g transform="matrix(1.9140625, 0, 0, 1.9140625, 209.99992965625188, 0)">
        <path d="M 32 0 H 480 A 32 32 0 0 1 512 32 V 480 A 32 32 0 0 1 480 512 H 32 A 32 32 0 0 1 0 480 V 32 A 32 32 0 0 1 32 0 Z"
              fill="#ffffff" fill-opacity="0"/>
        <g class="" transform="translate(0,0)" style="">
            <path d="M276.44 20.63v473.227c43.08-1.258 82.452-26.44 111.833-68.043 30.15-42.69 49.18-102.418 49.18-168.57 0-66.152-19.027-125.88-49.178-168.57C358.895 47.072 319.52 21.89 276.44 20.63zM156.07 227.194c-10.05.02-20.717.973-31.93 2.67-.857 98.74 54.765 57.68 122.387 65.075-14.887-50.39-46.9-67.83-90.457-67.745zm231.46 0c10.05.02 20.717.973 31.93 2.67.855 98.74-54.767 57.68-122.39 65.075 14.887-50.39 46.903-67.83 90.46-67.745z"
                  fill="#fff" fill-opacity="1"/>
        </g>
    </g>
    <path d="M 529.200012 100.900002 L 873.200012 100.900002" class="st4" style="fill: rgb(255, 255, 255);"
          transform="matrix(0.9999999999999999, 0, 0, 0.9999999999999999, 1.8189894035458565e-12, 4.547473508864641e-13)"/>


    <g transform="matrix(0.9999999999999999, 0, 0, 0.9999999999999999, 1.8189894035458565e-12, 4.547473508864641e-13)">
        <path class="st13" d="M448.4,599.9" style="fill: rgb(223, 243, 251);"/>
    </g>


    <g transform="matrix(0.963245689868927, 0, 0, 0.963245689868927, 264.9042418259753, 21.961719512939453)">
        <path d="M 32 0 H 480 A 32 32 0 0 1 512 32 V 480 A 32 32 0 0 1 480 512 H 32 A 32 32 0 0 1 0 480 V 32 A 32 32 0 0 1 32 0 Z"
              fill="#ffffff" fill-opacity="0"/>
        <g class="" transform="translate(0,0)" style="">
            <path d="M256 23c-3.7 0-7.4.1-11.1.27l.8 17.98c3.4-.16 6.8-.25 10.3-.25 118.8 0 215 96.2 215 215s-96.2 215-215 215c-89.6 0-166.35-54.7-198.65-132.6l27.63-8.3-48.43-34.3-19.05 54.5 22.55-6.7C74.68 428.8 158.4 489 256 489c128.6 0 233-104.4 233-233S384.6 23 256 23zm-30.8 2.04c-13.3 1.75-26.1 4.6-38.6 8.48l5.6 17.09c11.4-3.54 23.3-6.15 35.4-7.75l-2.4-17.82zm-57 15.12c-12.4 5.05-24.2 11.12-35.4 18.12l9.5 15.21c10.3-6.44 21.2-12.03 32.6-16.67l-6.7-16.66zM116.4 69.5a234.139 234.139 0 0 0-29.35 26.12l13.05 12.28c8.3-8.77 17.4-16.81 27-24.06l-4.8-6.57-5.9-7.77zm69.5 8.58l-4.4 17.44 217 55.48 4.4-17.4-217-55.52zM74.07 110.5c-8.19 10.2-15.54 21.2-21.94 32.7l15.65 8.8c5.91-10.7 12.69-20.8 20.26-30.3l-13.97-11.2zm127.63 8.8c-3.9 26 2.8 55.2 14.2 79.2 6.4 13.4 14.2 25.2 21.9 33.8 4.2 4.7 8.4 8.3 12.2 10.9l-5.4 21.2c-4.6.4-10 1.6-16 3.7-10.9 3.8-23.4 10.4-35.4 19.1-21.6 15.6-41.4 37.9-50.4 62.6l167.5 42.9c3.9-26-2.8-55.2-14.2-79.2-6.4-13.4-14.2-25.2-21.9-33.8-4.2-4.7-8.4-8.3-12.2-10.9l5.4-21.2c4.5-.5 10-1.6 16-3.7 10.9-3.8 23.4-10.4 35.4-19.1 21.6-15.6 41.4-37.9 50.4-62.6l-167.5-42.9zM43.24 160.9c-5.33 12-9.7 24.4-13 37.3l17.48 4.2c3.03-11.8 7.04-23.2 11.95-34.2l-16.43-7.3zM26.2 217.5C24.11 230 23 242.9 23 256v.9l18-.2v-.7c0-12.1 1.02-24 2.95-35.6l-17.75-2.9zM113.5 361l-4.4 17.4 217 55.5 4.4-17.4-217-55.5z"
                  fill="#fff" fill-opacity="1" style="fill-opacity: 1; fill: rgb(221, 221, 221);"/>
        </g>
    </g>
</svg>